<svg width="32" height="32" viewBox="0 0 32 32" fill="none" xmlns="http://www.w3.org/2000/svg">
<circle cx="16" cy="16" r="16" fill="white"/>
<path d="M25.4161 9.71225L25.0801 9.82132L23.2907 9.97887L22.7765 10.7868L22.4081 10.6696L20.9547 9.381L20.7442 8.71042L20.4567 7.99136L19.5539 7.18343L18.4892 6.97741L18.4649 7.46217L19.5094 8.48016L20.0195 9.07802L19.4446 9.381L18.9791 9.24365L18.2787 8.94876V8.38725L17.388 8.00752L17.0844 9.33656L16.1573 9.54258L16.2504 10.2859L17.4649 10.5161L17.6755 9.33252L18.6714 9.48199L19.1329 9.75265H19.8778L20.3758 10.7545L21.728 12.1199L21.6267 12.6531L20.5377 12.5158L18.6592 13.461L17.3071 15.0769L17.133 15.7959H16.6431L15.7403 15.392L14.8618 15.7959L15.0804 16.721L15.461 16.2807H16.1371L16.0885 17.0886L16.6472 17.2502L17.218 17.8925L18.1087 17.6219L19.1491 17.7835L20.3636 18.1066L20.9628 18.1793L21.983 19.3347L23.9546 20.49L22.6793 22.9138L21.3353 23.5359L20.8252 24.9255L18.8779 26.2223L18.6714 26.9696C20.4405 26.5383 22.0795 25.688 23.4496 24.4908C24.8196 23.2935 25.8804 21.7844 26.5421 20.0914C27.2038 18.3983 27.4469 16.5711 27.2509 14.7644C27.0549 12.9578 26.4255 11.2248 25.4161 9.71225Z" fill="#83B2E2"/>
<path d="M17.3071 21.916L16.4974 20.389L17.2382 18.8338L16.4812 18.6075L15.631 17.7552L13.7444 17.3512L13.121 16.006V16.7816H12.8457L11.2263 14.5841V12.7743L10.0361 10.8433L8.14544 11.1786H6.86614L6.22244 10.7747L7.03212 10.1283L6.22244 10.3142C5.21996 12.0319 4.68887 13.983 4.68267 15.9708C4.67647 17.9586 5.19537 19.9129 6.18711 21.6369C7.17884 23.3609 8.60838 24.7936 10.3317 25.7908C12.0551 26.788 14.0113 27.3144 16.0035 27.317C16.4787 27.3121 16.9533 27.2784 17.4245 27.216L17.3071 25.8466C17.3071 25.8466 17.8293 23.8268 17.8293 23.746C17.8293 23.6652 17.3071 21.916 17.3071 21.916Z" fill="#83B2E2"/>
<path d="M8.88226 8.33069L10.9065 8.04792L11.8336 7.54296L12.8781 7.84189L14.546 7.74898L15.1209 6.85218L15.9508 6.98953L17.9751 6.79967L18.5337 6.18564L19.3434 5.66453L20.4527 5.83015L20.8575 5.76956C18.5818 4.69311 16.0108 4.40619 13.5529 4.95438C11.095 5.50256 8.89113 6.85441 7.29122 8.79525L8.88226 8.33069ZM16.4812 5.81803L17.6228 5.18381L18.3678 5.61201L17.2909 6.41994L16.2626 6.52497L15.801 6.22604L16.4812 5.81803ZM13.0522 5.90691L13.5744 6.12505L14.2343 5.90691L14.5987 6.53709L13.0522 6.94105L12.3113 6.51285C12.3113 6.51285 13.036 6.04829 13.0522 5.90691Z" fill="#83B2E2"/>
</svg>
